<?xml version="1.0" encoding="utf-8"?>
<!-- Generator: Adobe Illustrator 24.0.3, SVG Export Plug-In . SVG Version: 6.00 Build 0)  -->
<svg version="1.1" id="Calque_1" xmlns="http://www.w3.org/2000/svg" xmlns:xlink="http://www.w3.org/1999/xlink" x="0px" y="0px"
	 viewBox="0 0 238.11 155.91" style="enable-background:new 0 0 238.11 155.91;" xml:space="preserve">
<path d="M118.85,156.4c-34.94,0-69.88-0.04-104.81,0.04c-6.18,0.01-10.91-2.28-13.63-7.79c-1.06-2.14-1.5-4.78-1.51-7.2
	c-0.09-42.31,0-84.62-0.12-126.94C-1.24,5.47,5.77-0.55,14.04-0.53c69.88,0.16,139.75,0.17,209.63,0
	c8.43-0.02,15.44,6.01,15.4,15.42c-0.17,42.06-0.17,84.13,0,126.19c0.04,9.41-6.97,15.48-15.4,15.42
	C188.73,156.26,153.79,156.4,118.85,156.4z M118.91,147.24c34.61,0,69.23,0,103.84,0c5.56,0,6.99-1.41,6.99-6.89
	c0-41.57,0-83.15,0-124.72c0-5.48-1.43-6.9-6.99-6.9c-69.23,0-138.46,0-207.68,0c-5.54,0-6.99,1.43-6.99,6.89
	c0,41.57,0,83.15,0,124.72c0,5.46,1.45,6.89,6.98,6.9C49.69,147.24,84.3,147.24,118.91,147.24z"/>
<path d="M19.7,26.59c1.61-2.79,3.02-5.23,4.55-7.88c0.83,0.43,1.62,0.8,2.38,1.23c29.38,16.78,58.78,33.53,88.12,50.39
	c3.05,1.75,5.52,1.68,8.54-0.06c29.48-16.95,59.02-33.78,88.55-50.64c0.5-0.29,1.02-0.55,1.82-0.98c1.49,2.56,2.97,5.1,4.6,7.89
	c-0.97,0.58-1.87,1.14-2.78,1.66c-28.95,16.54-57.95,32.99-86.81,49.68c-6.69,3.87-12.65,3.91-19.39,0.01
	C80.79,61.37,52.14,45.14,23.55,28.81C22.34,28.11,21.13,27.41,19.7,26.59z"/>
<path d="M94.51,80.58c1.62,2.85,3.05,5.36,4.58,8.03c-24.99,14.27-49.8,28.44-74.87,42.75c-1.5-2.6-2.97-5.15-4.62-8
	C44.55,109.11,69.41,94.92,94.51,80.58z"/>
<path d="M218.16,123.34c-1.61,2.8-3.08,5.36-4.6,8.01c-24.24-13.84-48.33-27.59-72.64-41.47c1.53-2.69,2.99-5.25,4.57-8.03
	C169.72,95.69,193.84,109.46,218.16,123.34z"/>
</svg>
